<svg xmlns="http://www.w3.org/2000/svg" xml:space="preserve" viewBox="0 0 1147 1147">
  <path fill="#FFF" d="M0 0h1147v1147H0z"/>
  <path d="M310 62h31v31h-31zM372 62h31v31h-31zM403 62h31v31h-31zM465 62h31v31h-31zM527 62h31v31h-31zM620 62h31v31h-31zM651 62h31v31h-31zM744 62h31v31h-31zM775 62h31v31h-31zM806 62h31v31h-31zM341 93h31v31h-31zM465 93h31v31h-31zM496 93h31v31h-31zM620 93h31v31h-31zM651 93h31v31h-31zM682 93h31v31h-31zM744 93h31v31h-31zM372 124h31v31h-31zM496 124h31v31h-31zM558 124h31v31h-31zM589 124h31v31h-31zM620 124h31v31h-31zM651 124h31v31h-31zM713 124h31v31h-31zM310 155h31v31h-31zM341 155h31v31h-31zM434 155h31v31h-31zM527 155h31v31h-31zM558 155h31v31h-31zM589 155h31v31h-31zM744 155h31v31h-31zM775 155h31v31h-31zM310 186h31v31h-31zM341 186h31v31h-31zM372 186h31v31h-31zM465 186h31v31h-31zM558 186h31v31h-31zM651 186h31v31h-31zM744 186h31v31h-31zM775 186h31v31h-31zM310 217h31v31h-31zM341 217h31v31h-31zM372 217h31v31h-31zM434 217h31v31h-31zM465 217h31v31h-31zM496 217h31v31h-31zM527 217h31v31h-31zM589 217h31v31h-31zM620 217h31v31h-31zM682 217h31v31h-31zM744 217h31v31h-31zM310 248h31v31h-31zM372 248h31v31h-31zM434 248h31v31h-31zM496 248h31v31h-31zM558 248h31v31h-31zM620 248h31v31h-31zM682 248h31v31h-31zM744 248h31v31h-31zM806 248h31v31h-31zM310 279h31v31h-31zM589 279h31v31h-31zM651 279h31v31h-31zM682 279h31v31h-31zM713 279h31v31h-31zM806 279h31v31h-31zM62 310h31v31H62zM186 310h31v31h-31zM248 310h31v31h-31zM279 310h31v31h-31zM310 310h31v31h-31zM341 310h31v31h-31zM496 310h31v31h-31zM527 310h31v31h-31zM589 310h31v31h-31zM713 310h31v31h-31zM806 310h31v31h-31zM837 310h31v31h-31zM868 310h31v31h-31zM899 310h31v31h-31zM930 310h31v31h-31zM961 310h31v31h-31zM1054 310h31v31h-31zM62 341h31v31H62zM155 341h31v31h-31zM186 341h31v31h-31zM310 341h31v31h-31zM341 341h31v31h-31zM372 341h31v31h-31zM403 341h31v31h-31zM434 341h31v31h-31zM527 341h31v31h-31zM558 341h31v31h-31zM589 341h31v31h-31zM620 341h31v31h-31zM682 341h31v31h-31zM744 341h31v31h-31zM775 341h31v31h-31zM837 341h31v31h-31zM899 341h31v31h-31zM961 341h31v31h-31zM992 341h31v31h-31zM62 372h31v31H62zM217 372h31v31h-31zM248 372h31v31h-31zM279 372h31v31h-31zM310 372h31v31h-31zM341 372h31v31h-31zM403 372h31v31h-31zM465 372h31v31h-31zM496 372h31v31h-31zM527 372h31v31h-31zM558 372h31v31h-31zM620 372h31v31h-31zM682 372h31v31h-31zM775 372h31v31h-31zM806 372h31v31h-31zM930 372h31v31h-31zM961 372h31v31h-31zM62 403h31v31H62zM124 403h31v31h-31zM186 403h31v31h-31zM217 403h31v31h-31zM279 403h31v31h-31zM310 403h31v31h-31zM403 403h31v31h-31zM434 403h31v31h-31zM465 403h31v31h-31zM558 403h31v31h-31zM651 403h31v31h-31zM713 403h31v31h-31zM775 403h31v31h-31zM837 403h31v31h-31zM868 403h31v31h-31zM930 403h31v31h-31zM1023 403h31v31h-31zM1054 403h31v31h-31zM62 434h31v31H62zM93 434h31v31H93zM124 434h31v31h-31zM186 434h31v31h-31zM217 434h31v31h-31zM248 434h31v31h-31zM279 434h31v31h-31zM341 434h31v31h-31zM403 434h31v31h-31zM465 434h31v31h-31zM558 434h31v31h-31zM651 434h31v31h-31zM682 434h31v31h-31zM713 434h31v31h-31zM868 434h31v31h-31zM899 434h31v31h-31zM930 434h31v31h-31zM1023 434h31v31h-31zM1054 434h31v31h-31zM62 465h31v31H62zM93 465h31v31H93zM124 465h31v31h-31zM279 465h31v31h-31zM310 465h31v31h-31zM496 465h31v31h-31zM620 465h31v31h-31zM651 465h31v31h-31zM682 465h31v31h-31zM744 465h31v31h-31zM775 465h31v31h-31zM806 465h31v31h-31zM837 465h31v31h-31zM961 465h31v31h-31zM992 465h31v31h-31zM62 496h31v31H62zM93 496h31v31H93zM124 496h31v31h-31zM186 496h31v31h-31zM217 496h31v31h-31zM248 496h31v31h-31zM310 496h31v31h-31zM341 496h31v31h-31zM372 496h31v31h-31zM403 496h31v31h-31zM434 496h31v31h-31zM496 496h31v31h-31zM527 496h31v31h-31zM589 496h31v31h-31zM620 496h31v31h-31zM682 496h31v31h-31zM713 496h31v31h-31zM744 496h31v31h-31zM775 496h31v31h-31zM806 496h31v31h-31zM837 496h31v31h-31zM868 496h31v31h-31zM992 496h31v31h-31zM1023 496h31v31h-31zM124 527h31v31h-31zM186 527h31v31h-31zM279 527h31v31h-31zM310 527h31v31h-31zM341 527h31v31h-31zM372 527h31v31h-31zM527 527h31v31h-31zM558 527h31v31h-31zM589 527h31v31h-31zM682 527h31v31h-31zM713 527h31v31h-31zM775 527h31v31h-31zM806 527h31v31h-31zM837 527h31v31h-31zM899 527h31v31h-31zM930 527h31v31h-31zM1023 527h31v31h-31zM124 558h31v31h-31zM186 558h31v31h-31zM217 558h31v31h-31zM248 558h31v31h-31zM403 558h31v31h-31zM434 558h31v31h-31zM496 558h31v31h-31zM558 558h31v31h-31zM589 558h31v31h-31zM620 558h31v31h-31zM651 558h31v31h-31zM682 558h31v31h-31zM713 558h31v31h-31zM837 558h31v31h-31zM868 558h31v31h-31zM899 558h31v31h-31zM930 558h31v31h-31zM992 558h31v31h-31zM1054 558h31v31h-31zM62 589h31v31H62zM93 589h31v31H93zM155 589h31v31h-31zM186 589h31v31h-31zM341 589h31v31h-31zM372 589h31v31h-31zM434 589h31v31h-31zM465 589h31v31h-31zM527 589h31v31h-31zM744 589h31v31h-31zM775 589h31v31h-31zM806 589h31v31h-31zM899 589h31v31h-31zM1023 589h31v31h-31zM1054 589h31v31h-31zM62 620h31v31H62zM186 620h31v31h-31zM217 620h31v31h-31zM248 620h31v31h-31zM279 620h31v31h-31zM310 620h31v31h-31zM434 620h31v31h-31zM465 620h31v31h-31zM527 620h31v31h-31zM589 620h31v31h-31zM744 620h31v31h-31zM775 620h31v31h-31zM930 620h31v31h-31zM961 620h31v31h-31zM1023 620h31v31h-31zM124 651h31v31h-31zM155 651h31v31h-31zM186 651h31v31h-31zM310 651h31v31h-31zM341 651h31v31h-31zM434 651h31v31h-31zM465 651h31v31h-31zM527 651h31v31h-31zM589 651h31v31h-31zM620 651h31v31h-31zM713 651h31v31h-31zM744 651h31v31h-31zM775 651h31v31h-31zM837 651h31v31h-31zM930 651h31v31h-31zM1023 651h31v31h-31zM1054 651h31v31h-31zM62 682h31v31H62zM93 682h31v31H93zM124 682h31v31h-31zM155 682h31v31h-31zM186 682h31v31h-31zM217 682h31v31h-31zM248 682h31v31h-31zM279 682h31v31h-31zM372 682h31v31h-31zM434 682h31v31h-31zM465 682h31v31h-31zM496 682h31v31h-31zM620 682h31v31h-31zM682 682h31v31h-31zM713 682h31v31h-31zM775 682h31v31h-31zM806 682h31v31h-31zM868 682h31v31h-31zM1054 682h31v31h-31zM62 713h31v31H62zM124 713h31v31h-31zM155 713h31v31h-31zM186 713h31v31h-31zM217 713h31v31h-31zM310 713h31v31h-31zM341 713h31v31h-31zM403 713h31v31h-31zM434 713h31v31h-31zM465 713h31v31h-31zM558 713h31v31h-31zM651 713h31v31h-31zM744 713h31v31h-31zM837 713h31v31h-31zM868 713h31v31h-31zM899 713h31v31h-31zM992 713h31v31h-31zM1023 713h31v31h-31zM124 744h31v31h-31zM155 744h31v31h-31zM186 744h31v31h-31zM248 744h31v31h-31zM310 744h31v31h-31zM372 744h31v31h-31zM434 744h31v31h-31zM465 744h31v31h-31zM558 744h31v31h-31zM620 744h31v31h-31zM682 744h31v31h-31zM713 744h31v31h-31zM775 744h31v31h-31zM806 744h31v31h-31zM868 744h31v31h-31zM899 744h31v31h-31zM961 744h31v31h-31zM992 744h31v31h-31zM1023 744h31v31h-31zM155 775h31v31h-31zM186 775h31v31h-31zM403 775h31v31h-31zM434 775h31v31h-31zM496 775h31v31h-31zM589 775h31v31h-31zM713 775h31v31h-31zM868 775h31v31h-31zM930 775h31v31h-31zM1023 775h31v31h-31zM1054 775h31v31h-31zM62 806h31v31H62zM93 806h31v31H93zM186 806h31v31h-31zM248 806h31v31h-31zM372 806h31v31h-31zM527 806h31v31h-31zM558 806h31v31h-31zM651 806h31v31h-31zM744 806h31v31h-31zM806 806h31v31h-31zM837 806h31v31h-31zM868 806h31v31h-31zM899 806h31v31h-31zM930 806h31v31h-31zM992 806h31v31h-31zM1023 806h31v31h-31zM1054 806h31v31h-31zM310 837h31v31h-31zM434 837h31v31h-31zM465 837h31v31h-31zM496 837h31v31h-31zM527 837h31v31h-31zM589 837h31v31h-31zM620 837h31v31h-31zM682 837h31v31h-31zM775 837h31v31h-31zM806 837h31v31h-31zM930 837h31v31h-31zM961 837h31v31h-31zM992 837h31v31h-31zM310 868h31v31h-31zM496 868h31v31h-31zM527 868h31v31h-31zM558 868h31v31h-31zM620 868h31v31h-31zM682 868h31v31h-31zM744 868h31v31h-31zM806 868h31v31h-31zM868 868h31v31h-31zM930 868h31v31h-31zM403 899h31v31h-31zM465 899h31v31h-31zM713 899h31v31h-31zM744 899h31v31h-31zM806 899h31v31h-31zM930 899h31v31h-31zM1023 899h31v31h-31zM1054 899h31v31h-31zM310 930h31v31h-31zM341 930h31v31h-31zM403 930h31v31h-31zM465 930h31v31h-31zM558 930h31v31h-31zM651 930h31v31h-31zM713 930h31v31h-31zM806 930h31v31h-31zM837 930h31v31h-31zM868 930h31v31h-31zM899 930h31v31h-31zM930 930h31v31h-31zM961 930h31v31h-31zM1023 930h31v31h-31zM1054 930h31v31h-31zM341 961h31v31h-31zM403 961h31v31h-31zM496 961h31v31h-31zM620 961h31v31h-31zM682 961h31v31h-31zM744 961h31v31h-31zM806 961h31v31h-31zM837 961h31v31h-31zM868 961h31v31h-31zM930 961h31v31h-31zM961 961h31v31h-31zM992 961h31v31h-31zM527 992h31v31h-31zM589 992h31v31h-31zM620 992h31v31h-31zM682 992h31v31h-31zM744 992h31v31h-31zM775 992h31v31h-31zM837 992h31v31h-31zM868 992h31v31h-31zM930 992h31v31h-31zM403 1023h31v31h-31zM434 1023h31v31h-31zM465 1023h31v31h-31zM527 1023h31v31h-31zM558 1023h31v31h-31zM589 1023h31v31h-31zM651 1023h31v31h-31zM682 1023h31v31h-31zM713 1023h31v31h-31zM744 1023h31v31h-31zM775 1023h31v31h-31zM806 1023h31v31h-31zM899 1023h31v31h-31zM310 1054h31v31h-31zM341 1054h31v31h-31zM434 1054h31v31h-31zM651 1054h31v31h-31zM713 1054h31v31h-31zM775 1054h31v31h-31zM806 1054h31v31h-31zM837 1054h31v31h-31zM1054 1054h31v31h-31z"/>
  <path fill="none" d="M94.55 94.55h151.9v151.9H94.55z"/>
  <path d="M246.45 62H62v217h217V62h-32.55zm0 184.45H94.55V94.55h151.9v151.9z"/>
  <path fill="none" d="M900.55 94.55h151.9v151.9h-151.9z"/>
  <path d="M1052.45 62H868v217h217V62h-32.55zm0 184.45h-151.9V94.55h151.9v151.9z"/>
  <path fill="none" d="M94.55 900.55h151.9v151.9H94.55z"/>
  <path d="M246.45 868H62v217h217V868h-32.55zm0 184.45H94.55v-151.9h151.9v151.9z"/>
  <g>
    <path d="M124 124h93v93h-93z"/>
  </g>
  <g>
    <path d="M930 124h93v93h-93z"/>
  </g>
  <g>
    <path d="M124 930h93v93h-93z"/>
  </g>
</svg>
